<svg xmlns="http://www.w3.org/2000/svg" width="1418.732" height="2667.48" viewBox="0 0 1418.732 2667.48"><path d="M1326.686,2676.189c-34.713,0-70.031-1.76-104.972-5.229-20.427-2.028-40.989-4.673-61.117-7.861-21.982-3.481-44-7.7-65.452-12.537-23.184-5.229-46.306-11.317-68.722-18.1-24.035-7.269-47.9-15.526-70.929-24.54-24.53-9.6-48.778-20.324-72.07-31.868-24.673-12.228-48.947-25.712-72.149-40.079-30.88-19.121-60.528-38.757-88.121-58.363-26.609-18.906-52.308-38.5-76.383-58.228a1253.017,1253.017,0,0,1-125.9-118.45c-18.042-19.459-35.605-39.55-53.693-61.419-16.278-19.683-32.733-40.513-50.3-63.681-32.867-43.339-64.883-88.608-98.778-136.536l-.006-.008c-26.332-37.234-53.561-75.735-83.343-116.4-24.722-33.755-45.606-62.972-63.847-89.319-20.527-29.648-38.074-56.172-53.644-81.087-16.738-26.784-30.966-51.336-43.5-75.06-6.438-12.189-12.481-24.287-17.961-35.958-5.581-11.886-10.777-23.755-15.446-35.277-4.734-11.687-9.087-23.42-12.937-34.872-3.891-11.575-7.4-23.264-10.436-34.742-3.058-11.573-5.729-23.311-7.941-34.888-2.225-11.646-4.06-23.526-5.455-35.309-5.6-47.293-4.644-96.671,2.91-150.957,3.64-26.157,6.924-52.748,10.1-78.463l0-.029c2.874-23.276,5.847-47.344,9.057-70.839,3.589-26.262,7.1-49.02,10.747-69.573,4.368-24.638,9.01-46.745,14.193-67.584,2.807-11.285,5.814-22.327,8.938-32.821,3.274-11,6.792-21.78,10.458-32.053,3.82-10.7,7.924-21.2,12.2-31.194,4.435-10.371,9.2-20.547,14.158-30.245,5.127-10.024,10.624-19.851,16.337-29.206,5.888-9.641,12.191-19.087,18.737-28.076,6.728-9.241,13.913-18.276,21.355-26.856,7.632-8.8,15.772-17.4,24.193-25.546,8.617-8.34,17.785-16.464,27.25-24.145,9.671-7.849,19.942-15.471,30.527-22.654,6.592-4.474,13.454-8.686,20.4-12.52,6.767-3.737,13.8-7.222,20.915-10.358,6.923-3.052,14.114-5.861,21.374-8.348,7.055-2.416,14.381-4.6,21.774-6.489a325.757,325.757,0,0,1,44.509-8.011,413.209,413.209,0,0,1,45.393-2.4c24.838,0,51.9,1.954,82.724,5.973,27.713,3.613,55.353,8.473,81.29,13.141q4.551.819,9.073,1.636c49.786,8.989,96.809,17.478,138.056,17.478a243.765,243.765,0,0,0,29.387-1.667,166.2,166.2,0,0,0,26.99-5.479,124.6,124.6,0,0,0,24.316-10.012,109.337,109.337,0,0,0,21.364-15.263,487.241,487.241,0,0,0,40.81-42.491c12.189-14.249,24.389-29.96,36.26-46.7a900.538,900.538,0,0,0,57.769-93.841c7.2-13.386,14.256-27.2,20.961-41.059,5.368-11.1,10.519-22.231,15.312-33.1,8.059-18.267,12.4-29.65,12.579-30.126l0-.008c.206-.487,5.158-12.139,13.844-30.441,8.187-17.251,21.5-44.211,38.456-74.681a1064.648,1064.648,0,0,1,58.44-93.922c11.715-16.676,23.581-32.275,35.268-46.366a511.854,511.854,0,0,1,38.529-41.8,429.994,429.994,0,0,1,33.066-28.7c10.733-8.4,22.107-16.491,33.805-24.043a499.341,499.341,0,0,1,65.755-35.643,525.482,525.482,0,0,1,56.491-21.6c16.821-5.336,30.536-8.711,39.079-10.6V2671.741A900.247,900.247,0,0,1,1326.686,2676.189Z" transform="translate(-0.003 -8.708)" fill="#fff2f2"/></svg>