<svg xmlns="http://www.w3.org/2000/svg" width="1311.749" height="2663.818" viewBox="0 0 1311.749 2663.818"><path d="M457.5,2810.038h0V146.22a1038.138,1038.138,0,0,1,196.75,25.26c18.077,4.144,36.17,8.842,53.778,13.966,18.46,5.372,36.9,11.36,54.8,17.8,18.71,6.728,37.354,14.135,55.416,22.014,18.827,8.213,37.542,17.168,55.625,26.616,32.359,16.906,63.515,34.412,92.6,52.03,14.181,8.59,28.225,17.42,41.742,26.246,13.249,8.651,26.39,17.559,39.058,26.475a1258.422,1258.422,0,0,1,134.75,109.317c19.483,18.144,38.529,36.952,58.226,57.5,17.727,18.491,35.711,38.115,54.979,59.992,36.027,40.906,71.333,83.8,108.711,129.2l.056.069.034.042c29.041,35.281,59.072,71.763,91.813,110.218,27.182,31.925,50.2,59.6,70.374,84.616,22.683,28.125,42.162,53.352,59.549,77.121,18.685,25.544,34.691,49.037,48.935,71.821,7.316,11.7,14.231,23.348,20.552,34.609,6.436,11.465,12.485,22.941,17.978,34.106,5.572,11.328,10.764,22.727,15.43,33.878,4.72,11.283,9.063,22.7,12.907,33.925,3.88,11.332,7.384,22.854,10.412,34.245,3.049,11.464,5.721,23.186,7.943,34.84,8.921,46.786,11.409,96.111,7.607,150.794-1.833,26.365-3.278,53.129-4.676,79.011v.02c-1.266,23.44-2.574,47.679-4.156,71.282-1.774,26.456-3.718,49.405-5.944,70.158-2.669,24.886-5.791,47.266-9.545,68.417-2.032,11.454-4.283,22.681-6.69,33.369-2.522,11.2-5.305,22.207-8.271,32.709-3.091,10.944-6.482,21.7-10.079,31.975-3.732,10.659-7.808,21.145-12.114,31.166-4.45,10.357-9.287,20.545-14.376,30.282-5.242,10.03-10.916,19.9-16.865,29.324-6.108,9.681-12.7,19.2-19.581,28.291-7.055,9.316-14.633,18.462-22.523,27.183-8.077,8.927-16.721,17.675-25.693,26-9.169,8.51-18.956,16.835-29.089,24.744a263.6,263.6,0,0,1-48.513,30.038c-8.21,3.932-16.813,7.534-25.57,10.706-8.443,3.058-17.285,5.81-26.28,8.177-32.248,8.487-68.151,12.612-109.76,12.613-19.9,0-41.543-.939-66.178-2.872-21.833-1.714-43.238-3.968-65.071-6.321l-3.5-.377-2.279-.246c-40.807-4.407-79.351-8.57-114.495-8.57a330.8,330.8,0,0,0-37.35,1.916c-6.03.682-11.875,1.565-17.372,2.623-5.706,1.1-11.226,2.422-16.408,3.934a147.656,147.656,0,0,0-15.372,5.4,125.83,125.83,0,0,0-14.266,7.01,113.231,113.231,0,0,0-13.087,8.775,109.375,109.375,0,0,0-11.837,10.691,488.975,488.975,0,0,0-38.036,45.254c-11.253,15.073-22.413,31.6-33.17,49.13a899.244,899.244,0,0,0-51.492,97.671c-6.308,13.869-12.429,28.146-18.193,42.432-4.614,11.432-9.013,22.9-13.075,34.09-6.951,19.145-10.5,30.822-10.536,30.938s-4.214,12.165-11.787,31.346c-7.021,17.782-18.518,45.61-33.425,77.2a1063.575,1063.575,0,0,1-52.16,97.8c-10.606,17.458-21.439,33.853-32.2,48.731a513.319,513.319,0,0,1-35.792,44.409c-70.213,77.2-157.467,115.021-203.229,130.7Z" transform="translate(-457.499 -146.22)" fill="#fff2f2"/></svg>